# Rhino

mtllib UFS_Corner.mtl
usemtl diffuse_0
v 0 0 -1
v 1.1666932106018066 0 -0.80415034294128418
v 0.88376641273498535 0 -0.36722564697265625
v 1 0 0
v 0 0 0
v 1.1666932106018066 0 -0.80415034294128418
v 1.0599846839904785 -0.12545883655548096 -0.7715308666229248
v 0 0 -1
v 0 -0.12545883655548096 -0.79699563980102539
v 0.88376641273498535 0 -0.36722564697265625
v 0.75125646591186523 -0.12545883655548096 -0.36722564697265625
v 1.1666932106018066 0 -0.80415034294128418
v 1.0599846839904785 -0.12545883655548096 -0.7715308666229248
v 1 0 0
v 0.79699563980102539 -0.12545883655548096 0
v 0.88376641273498535 0 -0.36722564697265625
v 0.75125646591186523 -0.12545883655548096 -0.36722564697265625
v 0 0 0
v 0 -0.12545883655548096 0
v 1 0 0
v 0.79699563980102539 -0.12545883655548096 0
v 0 0 -1
v 0 -0.12545883655548096 -0.79699563980102539
v 0 0 0
v 0 -0.12545883655548096 0
v 0 -0.12545883655548096 -0.79699563980102539
v 1.0599846839904785 -0.12545883655548096 -0.7715308666229248
v 0.75125646591186523 -0.12545883655548096 -0.36722564697265625
v 0.79699563980102539 -0.12545883655548096 0
v 0 -0.12545883655548096 0
vt 0.46679756045341492 0.28835052251815796
vt 0.9932703971862793 0.37668794393539429
vt 0.86559915542602539 0.57376158237457275
vt 0.91804981231689453 0.73939758539199829
vt 0.46679756045341492 0.73939758539199829
vt 0.4615328311920166 0.22707204520702362
vt 0.4615328311920166 0.28237521648406982
vt 0.99682825803756714 0.22707204520702362
vt 0.99682825803756714 0.28237521648406982
vt 0.4615328311920166 0.17030403017997742
vt 0.4615328311920166 0.22560720145702362
vt 0.69706356525421143 0.17030403017997742
vt 0.69706356525421143 0.22560720145702362
vt 0.4615328311920166 0.11353602260351181
vt 0.4615328311920166 0.16883918642997742
vt 0.63582098484039307 0.11353602260351181
vt 0.63582098484039307 0.16883918642997742
vt 0.4615328311920166 0.056768011301755905
vt 0.4615328311920166 0.11207117885351181
vt 0.9140160083770752 0.056768011301755905
vt 0.9140160083770752 0.11207117885351181
vt 0.4615328311920166 0
vt 0.4615328311920166 0.055303167551755905
vt 0.9140160083770752 0
vt 0.9140160083770752 0.055303167551755905
vt 0.45555752515792847 0.0052790902554988861
vt 0.36722007393836975 0.53318804502487183
vt 0.17014645040035248 0.40516853332519531
vt 0.0045104837045073509 0.45776227116584778
vt 0.0045104837045073509 0.0052790902554988861
vn 0 1 0
vn 0 1 0
vn 0 1 0
vn 0 1 0
vn 0 1 0
vn 0.070762626826763153 -0.69865220785140991 -0.71195346117019653
vn 0.070762626826763153 -0.69865220785140991 -0.71195346117019653
vn 0.077153220772743225 -0.75463849306106567 -0.65158891677856445
vn 0.070762626826763153 -0.69865220785140991 -0.71195346117019653
vn 0.65553206205368042 -0.60723942518234253 0.44892987608909607
vn 0.6685105562210083 -0.57621735334396362 0.47017779946327209
vn 0.6685105562210083 -0.57621735334396362 0.47017779946327209
vn 0.6685105562210083 -0.57621735334396362 0.47017779946327209
vn 0.77704805135726929 -0.62866896390914917 -0.031171601265668869
vn 0.59374600648880005 -0.79392683506011963 -0.1309422105550766
vn 0.59374600648880005 -0.79392683506011963 -0.1309422105550766
vn 0.59374600648880005 -0.79392683506011963 -0.1309422105550766
vn 0 0 1
vn 0 0 1
vn 0 0 1
vn 0 0 1
vn -1 0 0
vn -1 0 0
vn -1 0 0
vn -1 0 0
vn 0 -1 0
vn 0 -1 0
vn 0 -1 0
vn 0 -1 0
vn 0 -1 0
f 3/3/3 1/1/1 5/5/5
f 1/1/1 3/3/3 2/2/2
f 5/5/5 4/4/4 3/3/3
f 7/7/7 9/9/9 8/8/8 6/6/6
f 11/11/11 13/13/13 12/12/12 10/10/10
f 15/15/15 17/17/17 16/16/16 14/14/14
f 19/19/19 21/21/21 20/20/20 18/18/18
f 23/23/23 25/25/25 24/24/24 22/22/22
f 28/28/28 30/30/30 26/26/26
f 26/26/26 27/27/27 28/28/28
f 30/30/30 28/28/28 29/29/29
