<svg width="100%" height="100%" viewBox="0 0 2481 3508">
    <path d="M221.736,3258.36l-9.49,-29.996l7.711,0l5.621,19.658l5.169,-19.658l7.654,0l4.999,19.658l5.734,-19.658l7.824,0l-9.632,29.996l-7.626,0l-5.169,-19.291l-5.084,19.291l-7.711,0Z" style="fill:#18398a;"/>
    <path d="M267.253,3258.36l-9.49,-29.996l7.711,0l5.62,19.658l5.169,-19.658l7.655,0l4.999,19.658l5.734,-19.658l7.824,0l-9.632,29.996l-7.626,0l-5.169,-19.291l-5.084,19.291l-7.711,0Z" style="fill:#18398a;"/>
    <path d="M312.247,3258.36l-9.49,-29.996l7.711,0l5.621,19.658l5.169,-19.658l7.654,0l4.999,19.658l5.734,-19.658l7.824,0l-9.632,29.996l-7.626,0l-5.169,-19.291l-5.084,19.291l-7.711,0Z" style="fill:#18398a;"/>
    <rect x="349.503" y="3250.42" width="7.937" height="7.937" style="fill:#18398a;"/>
    <path d="M371.506,3237.52l-7.203,-1.299c0.81,-2.9 2.203,-5.047 4.18,-6.44c1.978,-1.393 4.915,-2.09 8.813,-2.09c3.54,0 6.176,0.419 7.908,1.257c1.733,0.838 2.952,1.902 3.658,3.191c0.706,1.29 1.059,3.658 1.059,7.104l-0.084,9.264c0,2.637 0.127,4.581 0.381,5.833c0.254,1.252 0.73,2.594 1.426,4.025l-7.852,0c-0.207,-0.527 -0.461,-1.309 -0.762,-2.344c-0.132,-0.471 -0.226,-0.782 -0.283,-0.932c-1.356,1.318 -2.806,2.306 -4.35,2.965c-1.544,0.659 -3.191,0.989 -4.942,0.989c-3.089,0 -5.522,-0.838 -7.302,-2.514c-1.779,-1.676 -2.669,-3.794 -2.669,-6.355c0,-1.695 0.405,-3.206 1.215,-4.533c0.809,-1.328 1.944,-2.345 3.403,-3.051c1.459,-0.706 3.564,-1.323 6.313,-1.85c3.709,-0.697 6.28,-1.346 7.711,-1.949l0,-0.791c0,-1.525 -0.377,-2.612 -1.13,-3.262c-0.753,-0.65 -2.175,-0.975 -4.265,-0.975c-1.412,0 -2.514,0.278 -3.305,0.834c-0.791,0.555 -1.431,1.53 -1.92,2.923Zm10.62,6.44c-1.017,0.339 -2.627,0.744 -4.83,1.214c-2.203,0.471 -3.644,0.933 -4.322,1.385c-1.035,0.734 -1.553,1.666 -1.553,2.796c0,1.111 0.414,2.071 1.243,2.881c0.828,0.809 1.883,1.214 3.163,1.214c1.431,0 2.796,-0.47 4.096,-1.412c0.96,-0.715 1.591,-1.591 1.892,-2.627c0.207,-0.678 0.311,-1.967 0.311,-3.869l0,-1.582Z" style="fill:#18398a;"/>
    <path d="M405.654,3216.95l0,15.224c2.561,-2.994 5.621,-4.491 9.18,-4.491c1.826,0 3.474,0.339 4.942,1.017c1.469,0.678 2.575,1.544 3.319,2.598c0.744,1.055 1.252,2.222 1.525,3.503c0.273,1.28 0.41,3.267 0.41,5.959l0,17.597l-7.937,0l0,-15.846c0,-3.144 -0.151,-5.14 -0.452,-5.987c-0.301,-0.848 -0.833,-1.521 -1.596,-2.02c-0.762,-0.499 -1.718,-0.749 -2.867,-0.749c-1.318,0 -2.495,0.321 -3.53,0.961c-1.036,0.64 -1.794,1.605 -2.274,2.895c-0.48,1.29 -0.72,3.196 -0.72,5.72l0,15.026l-7.937,0l0,-41.407l7.937,0Z" style="fill:#18398a;"/>
    <path d="M439.011,3237.52l-7.202,-1.299c0.809,-2.9 2.203,-5.047 4.18,-6.44c1.977,-1.393 4.915,-2.09 8.813,-2.09c3.54,0 6.176,0.419 7.908,1.257c1.733,0.838 2.952,1.902 3.658,3.191c0.706,1.29 1.059,3.658 1.059,7.104l-0.085,9.264c0,2.637 0.127,4.581 0.382,5.833c0.254,1.252 0.729,2.594 1.426,4.025l-7.852,0c-0.207,-0.527 -0.461,-1.309 -0.763,-2.344c-0.132,-0.471 -0.226,-0.782 -0.282,-0.932c-1.356,1.318 -2.806,2.306 -4.35,2.965c-1.544,0.659 -3.192,0.989 -4.943,0.989c-3.088,0 -5.522,-0.838 -7.301,-2.514c-1.78,-1.676 -2.669,-3.794 -2.669,-6.355c0,-1.695 0.405,-3.206 1.214,-4.533c0.81,-1.328 1.944,-2.345 3.404,-3.051c1.459,-0.706 3.563,-1.323 6.313,-1.85c3.709,-0.697 6.279,-1.346 7.71,-1.949l0,-0.791c0,-1.525 -0.376,-2.612 -1.129,-3.262c-0.754,-0.65 -2.175,-0.975 -4.265,-0.975c-1.413,0 -2.514,0.278 -3.305,0.834c-0.791,0.555 -1.431,1.53 -1.921,2.923Zm10.62,6.44c-1.016,0.339 -2.626,0.744 -4.829,1.214c-2.204,0.471 -3.644,0.933 -4.322,1.385c-1.036,0.734 -1.553,1.666 -1.553,2.796c0,1.111 0.414,2.071 1.242,2.881c0.829,0.809 1.883,1.214 3.164,1.214c1.431,0 2.796,-0.47 4.095,-1.412c0.961,-0.715 1.591,-1.591 1.893,-2.627c0.207,-0.678 0.31,-1.967 0.31,-3.869l0,-1.582Z" style="fill:#18398a;"/>
    <rect x="464.347" y="3239.38" width="15.591" height="7.937" style="fill:#18398a;"/>
    <path d="M492.112,3258.36l-7.937,0l0,-29.996l7.372,0l0,4.265c1.262,-2.015 2.396,-3.343 3.404,-3.983c1.007,-0.64 2.151,-0.96 3.431,-0.96c1.808,0 3.55,0.499 5.226,1.497l-2.458,6.92c-1.337,-0.866 -2.579,-1.299 -3.728,-1.299c-1.111,0 -2.052,0.306 -2.824,0.918c-0.772,0.612 -1.38,1.718 -1.822,3.318c-0.443,1.601 -0.664,4.953 -0.664,10.056l0,9.264Z" style="fill:#18398a;"/>
    <path d="M524.396,3248.81l7.909,1.328c-1.017,2.899 -2.622,5.107 -4.816,6.623c-2.194,1.516 -4.938,2.274 -8.234,2.274c-5.215,0 -9.076,-1.704 -11.58,-5.113c-1.977,-2.73 -2.966,-6.176 -2.966,-10.337c0,-4.971 1.3,-8.864 3.898,-11.68c2.599,-2.815 5.884,-4.222 9.858,-4.222c4.462,0 7.984,1.473 10.563,4.42c2.58,2.947 3.813,7.462 3.7,13.544l-19.884,0c0.056,2.353 0.697,4.185 1.921,5.493c1.223,1.309 2.749,1.963 4.575,1.963c1.243,0 2.288,-0.339 3.135,-1.016c0.848,-0.678 1.488,-1.77 1.921,-3.277Zm0.452,-8.021c-0.056,-2.298 -0.65,-4.044 -1.779,-5.24c-1.13,-1.196 -2.505,-1.794 -4.124,-1.794c-1.733,0 -3.164,0.631 -4.293,1.893c-1.13,1.262 -1.686,2.975 -1.667,5.141l11.863,0Z" style="fill:#18398a;"/>
    <path d="M538.462,3260.34l9.067,1.102c0.15,1.054 0.499,1.779 1.045,2.175c0.753,0.564 1.939,0.847 3.559,0.847c2.071,0 3.625,-0.311 4.66,-0.932c0.697,-0.414 1.224,-1.083 1.582,-2.006c0.245,-0.659 0.367,-1.873 0.367,-3.643l0,-4.378c-2.372,3.239 -5.366,4.858 -8.982,4.858c-4.029,0 -7.221,-1.704 -9.575,-5.112c-1.845,-2.693 -2.768,-6.045 -2.768,-10.056c0,-5.027 1.21,-8.869 3.63,-11.524c2.419,-2.655 5.427,-3.982 9.024,-3.982c3.709,0 6.769,1.629 9.179,4.886l0,-4.208l7.429,0l0,26.917c0,3.54 -0.292,6.186 -0.876,7.937c-0.583,1.751 -1.402,3.126 -2.457,4.124c-1.054,0.998 -2.462,1.779 -4.223,2.344c-1.76,0.565 -3.987,0.848 -6.68,0.848c-5.084,0 -8.69,-0.871 -10.817,-2.613c-2.128,-1.742 -3.192,-3.95 -3.192,-6.624c0,-0.263 0.009,-0.583 0.028,-0.96Zm7.09,-17.597c0,3.183 0.616,5.513 1.85,6.991c1.233,1.478 2.754,2.217 4.561,2.217c1.94,0 3.578,-0.758 4.915,-2.273c1.337,-1.516 2.005,-3.762 2.005,-6.737c0,-3.107 -0.64,-5.413 -1.92,-6.92c-1.281,-1.506 -2.9,-2.26 -4.859,-2.26c-1.901,0 -3.469,0.74 -4.702,2.218c-1.234,1.478 -1.85,3.733 -1.85,6.764Z" style="fill:#18398a;"/>
    <path d="M574.531,3224.3l0,-7.343l7.937,0l0,7.343l-7.937,0Zm0,34.064l0,-29.996l7.937,0l0,29.996l-7.937,0Z" style="fill:#18398a;"/>
    <path d="M588.767,3242.94c0,-2.636 0.649,-5.188 1.948,-7.654c1.3,-2.467 3.14,-4.35 5.522,-5.649c2.382,-1.3 5.042,-1.949 7.98,-1.949c4.538,0 8.257,1.473 11.156,4.42c2.9,2.947 4.35,6.671 4.35,11.171c0,4.538 -1.464,8.299 -4.392,11.284c-2.928,2.985 -6.614,4.477 -11.058,4.477c-2.749,0 -5.371,-0.622 -7.866,-1.864c-2.495,-1.243 -4.392,-3.065 -5.692,-5.466c-1.299,-2.401 -1.948,-5.324 -1.948,-8.77Zm8.134,0.424c0,2.975 0.706,5.253 2.119,6.835c1.412,1.582 3.154,2.373 5.225,2.373c2.071,0 3.808,-0.791 5.211,-2.373c1.403,-1.582 2.104,-3.879 2.104,-6.892c0,-2.937 -0.701,-5.197 -2.104,-6.778c-1.403,-1.582 -3.14,-2.373 -5.211,-2.373c-2.071,0 -3.813,0.791 -5.225,2.373c-1.413,1.581 -2.119,3.86 -2.119,6.835Z" style="fill:#18398a;"/>
    <path d="M653.222,3258.36l-7.937,0l0,-15.309c0,-3.239 -0.17,-5.333 -0.508,-6.284c-0.339,-0.951 -0.89,-1.69 -1.653,-2.218c-0.762,-0.527 -1.68,-0.791 -2.754,-0.791c-1.374,0 -2.608,0.377 -3.7,1.13c-1.092,0.753 -1.84,1.751 -2.245,2.994c-0.405,1.243 -0.608,3.54 -0.608,6.892l0,13.586l-7.936,0l0,-29.996l7.372,0l0,4.406c2.617,-3.389 5.912,-5.084 9.885,-5.084c1.752,0 3.352,0.315 4.802,0.946c1.45,0.631 2.547,1.436 3.291,2.415c0.743,0.979 1.261,2.09 1.553,3.333c0.292,1.243 0.438,3.022 0.438,5.338l0,18.642Z" style="fill:#18398a;"/>
    <rect x="661.272" y="3250.42" width="7.937" height="7.937" style="fill:#18398a;"/>
    <path d="M704.854,3258.36l-7.372,0l0,-4.406c-1.224,1.713 -2.669,2.989 -4.336,3.827c-1.666,0.838 -3.347,1.257 -5.042,1.257c-3.445,0 -6.397,-1.389 -8.854,-4.166c-2.458,-2.778 -3.686,-6.652 -3.686,-11.623c0,-5.084 1.195,-8.949 3.587,-11.595c2.391,-2.645 5.413,-3.968 9.066,-3.968c3.352,0 6.252,1.393 8.7,4.18l0,-14.913l7.937,0l0,41.407Zm-21.184,-15.648c0,3.201 0.442,5.517 1.327,6.948c1.281,2.072 3.07,3.107 5.367,3.107c1.827,0 3.38,-0.776 4.66,-2.33c1.281,-1.553 1.921,-3.874 1.921,-6.962c0,-3.446 -0.621,-5.927 -1.864,-7.443c-1.243,-1.516 -2.834,-2.274 -4.773,-2.274c-1.883,0 -3.46,0.749 -4.731,2.246c-1.272,1.497 -1.907,3.733 -1.907,6.708Z" style="fill:#18398a;"/>
    <path d="M730.048,3248.81l7.909,1.328c-1.017,2.899 -2.622,5.107 -4.816,6.623c-2.193,1.516 -4.938,2.274 -8.233,2.274c-5.216,0 -9.076,-1.704 -11.581,-5.113c-1.977,-2.73 -2.965,-6.176 -2.965,-10.337c0,-4.971 1.299,-8.864 3.897,-11.68c2.599,-2.815 5.885,-4.222 9.858,-4.222c4.463,0 7.984,1.473 10.564,4.42c2.579,2.947 3.813,7.462 3.7,13.544l-19.885,0c0.057,2.353 0.697,4.185 1.921,5.493c1.224,1.309 2.749,1.963 4.576,1.963c1.242,0 2.287,-0.339 3.135,-1.016c0.847,-0.678 1.487,-1.77 1.92,-3.277Zm0.452,-8.021c-0.056,-2.298 -0.649,-4.044 -1.779,-5.24c-1.13,-1.196 -2.505,-1.794 -4.124,-1.794c-1.732,0 -3.163,0.631 -4.293,1.893c-1.13,1.262 -1.685,2.975 -1.667,5.141l11.863,0Z" style="fill:#18398a;"/>
    <path d="M154.585,-0.083l0,3236.55c0,0 0,47.25 48.179,47.25l1828.14,0.004" style="fill:none;stroke:#18398a;stroke-width:2.08px;"/>
    <path d="M1472.52,3246.02c1.133,-9.258 -4.838,-18.037 -14.575,-18.037c-9.2,0 -14.929,7.525 -14.929,16.308c0,9.504 5.433,16.246 15.108,16.246c6.75,0 12.483,-3.758 13.979,-10.508l-6.454,0c-1.192,3.408 -3.583,5.141 -7.525,5.141c-5.675,0 -8.304,-4.308 -8.304,-9.15l22.7,0Zm-22.7,-4.475c0.179,-4.604 3.404,-8.191 8.125,-8.191c4.6,0 7.525,3.887 7.767,8.191l-15.892,0Zm28.163,18.159l6.804,0l0,-30.884l-6.804,0l0,30.884Zm0,-36.209l6.804,0l0,-6.446l-6.804,0l0,6.446Zm13.97,36.209l6.805,0l0,-18.225c0,-4.542 2.929,-8.125 7.47,-8.125c4.005,0 5.917,2.091 6.038,6.929l0,19.421l6.8,0l0,-21.213c0,-6.929 -4.238,-10.508 -10.925,-10.508c-4.067,0 -7.592,2.087 -9.625,5.491l-0.117,-0.12l0,-4.534l-6.446,0l0,30.884Zm31.038,-25.813l5.079,0l0,25.813l6.804,0l0,-25.813l5.792,0l0,-5.071l-5.792,0l0,-3.171c0,-2.571 1.492,-3.229 3.342,-3.229c1.375,0 2.271,0.121 3.167,0.358l0,-5.312c-1.075,-0.296 -2.63,-0.417 -4.78,-0.417c-4.416,0 -8.533,1.313 -8.533,9.2l0,2.571l-5.079,0l0,5.071Zm40.808,15.421c0,4.304 -4.662,5.858 -7.654,5.858c-2.387,0 -6.275,-0.9 -6.275,-3.946c0,-3.591 2.629,-4.666 5.558,-5.145c2.988,-0.538 6.275,-0.475 8.371,-1.85l0,5.083Zm6.8,-12.375c0,-6.509 -6.325,-8.954 -12.362,-8.954c-6.813,0 -13.554,2.329 -14.034,10.271l6.805,0c0.295,-3.346 2.987,-4.9 6.812,-4.9c2.75,0 6.396,0.658 6.396,4.183c0,4.008 -4.363,3.471 -9.263,4.367c-5.737,0.658 -11.883,1.908 -11.883,9.616c0,6.038 5.013,9.017 10.567,9.017c3.646,0 8.008,-1.133 10.696,-3.758c0.537,2.804 2.508,3.758 5.254,3.758c1.133,0 3.283,-0.417 4.3,-0.775l0,-4.713c-0.717,0.121 -1.254,0.121 -1.675,0.121c-1.254,0 -1.613,-0.658 -1.613,-2.333l0,-15.9Zm34.917,2.212c-0.658,-7.587 -6.75,-11.166 -13.921,-11.166c-10.15,0 -15.225,7.283 -15.225,16.608c0,9.083 5.313,15.946 14.988,15.946c7.945,0 12.904,-4.413 14.158,-12.421l-6.808,0c-0.659,4.425 -3.409,7.054 -7.35,7.054c-5.913,0 -8.184,-5.441 -8.184,-10.579c0,-9.383 4.959,-11.237 8.484,-11.237c3.762,0 6.512,2.033 7.05,5.795l6.808,0Zm5.562,20.555l6.805,0l0,-18.225c0,-4.542 2.929,-8.125 7.47,-8.125c4.005,0 5.917,2.091 6.038,6.929l0,19.421l6.8,0l0,-21.213c0,-6.929 -4.238,-10.508 -10.925,-10.508c-4.067,0 -7.592,2.087 -9.267,4.891l-0.116,0l0,-15.825l-6.805,0l0,42.655Zm34.53,0l8.295,0l0,-8.059l-8.295,0l0,8.059Zm51.729,-10.392c0,4.304 -4.663,5.858 -7.65,5.858c-2.392,0 -6.275,-0.9 -6.275,-3.946c0,-3.591 2.629,-4.666 5.554,-5.145c2.992,-0.538 6.279,-0.475 8.371,-1.85l0,5.083Zm6.804,-12.375c0,-6.509 -6.325,-8.954 -12.362,-8.954c-6.813,0 -13.559,2.329 -14.034,10.271l6.8,0c0.3,-3.346 2.992,-4.9 6.817,-4.9c2.75,0 6.392,0.658 6.392,4.183c0,4.008 -4.363,3.471 -9.263,4.367c-5.737,0.658 -11.883,1.908 -11.883,9.616c0,6.038 5.012,9.017 10.571,9.017c3.645,0 8.008,-1.133 10.695,-3.758c0.538,2.804 2.509,3.758 5.25,3.758c1.134,0 3.288,-0.417 4.3,-0.775l0,-4.713c-0.716,0.121 -1.254,0.121 -1.67,0.121c-1.255,0 -1.613,-0.658 -1.613,-2.333l0,-15.9Zm7.85,22.767l6.804,0l0,-42.655l-6.804,0l0,42.655Zm14.067,0l6.804,0l0,-42.655l-6.804,0l0,42.655Zm42.054,-13.684c1.133,-9.258 -4.838,-18.037 -14.575,-18.037c-9.2,0 -14.929,7.525 -14.929,16.308c0,9.504 5.433,16.246 15.108,16.246c6.75,0 12.483,-3.758 13.979,-10.508l-6.454,0c-1.196,3.408 -3.583,5.141 -7.525,5.141c-5.675,0 -8.304,-4.308 -8.304,-9.15l22.7,0Zm-22.7,-4.475c0.179,-4.604 3.404,-8.191 8.125,-8.191c4.6,0 7.525,3.887 7.767,8.191l-15.892,0Zm26.358,8.246c0.117,7.288 5.904,10.746 13.675,10.746c6.396,0 13.796,-2.683 13.796,-10.029c0,-6.092 -5.012,-7.888 -9.971,-9.021c-5.021,-1.142 -10.041,-1.617 -10.041,-4.967c0,-2.687 3.645,-3.166 5.616,-3.166c2.992,0 5.679,0.895 6.279,4.125l7.1,0c-0.833,-6.871 -6.562,-9.496 -12.9,-9.496c-5.616,0 -12.9,2.087 -12.9,8.837c0,6.275 4.896,8.071 9.913,9.146c4.962,1.133 9.921,1.554 10.1,5.138c0.179,3.529 -4.304,4.066 -6.871,4.066c-3.65,0 -6.637,-1.433 -6.996,-5.379l-6.8,0Zm33.404,9.913l8.296,0l0,-8.059l-8.296,0l0,8.059Zm31,-9.913c0.121,7.288 5.909,10.746 13.68,10.746c6.395,0 13.795,-2.683 13.795,-10.029c0,-6.092 -5.012,-7.888 -9.97,-9.021c-5.021,-1.142 -10.042,-1.617 -10.042,-4.967c0,-2.687 3.646,-3.166 5.617,-3.166c2.987,0 5.679,0.895 6.275,4.125l7.104,0c-0.834,-6.871 -6.567,-9.496 -12.9,-9.496c-5.617,0 -12.9,2.087 -12.9,8.837c0,6.275 4.891,8.071 9.912,9.146c4.959,1.133 9.921,1.554 10.1,5.138c0.179,3.529 -4.304,4.066 -6.875,4.066c-3.646,0 -6.633,-1.433 -6.991,-5.379l-6.805,0Zm52.067,-0.479c0,4.304 -4.662,5.858 -7.65,5.858c-2.392,0 -6.275,-0.9 -6.275,-3.946c0,-3.591 2.629,-4.666 5.554,-5.145c2.992,-0.538 6.279,-0.475 8.371,-1.85l0,5.083Zm6.804,-12.375c0,-6.509 -6.325,-8.954 -12.362,-8.954c-6.813,0 -13.559,2.329 -14.034,10.271l6.8,0c0.3,-3.346 2.992,-4.9 6.817,-4.9c2.75,0 6.396,0.658 6.396,4.183c0,4.008 -4.363,3.471 -9.267,4.367c-5.733,0.658 -11.883,1.908 -11.883,9.616c0,6.038 5.012,9.017 10.571,9.017c3.646,0 8.008,-1.133 10.696,-3.758c0.537,2.804 2.508,3.758 5.25,3.758c1.137,0 3.287,-0.417 4.3,-0.775l0,-4.713c-0.717,0.121 -1.254,0.121 -1.671,0.121c-1.254,0 -1.613,-0.658 -1.613,-2.333l0,-15.9Zm34.255,-8.117l-6.805,0l0,17.925c0,4.779 -1.912,8.425 -7.591,8.425c-3.704,0 -5.917,-1.971 -5.917,-7.408l0,-18.942l-6.8,0l0,19.596c0,8.067 3.458,12.121 11.521,12.121c3.408,0 7.112,-2.025 8.787,-5.129l0.121,0l0,4.296l6.684,0l0,-30.884Zm30.991,15.471c0,5.379 -2.333,10.879 -8.546,10.879c-5.5,0 -8.666,-4.662 -8.666,-10.879c0,-6.575 2.929,-10.937 8.666,-10.937c5.617,0 8.546,5.32 8.546,10.937m-23.775,15.413l6.442,0l0,-4.238l0.121,0c2.033,4.058 6.512,5.071 10.696,5.071c9.141,0 13.316,-7.817 13.316,-16.125c0,-9.025 -4.712,-16.429 -14.45,-16.429c-3.466,0 -7.35,1.85 -9.204,4.833l-0.121,0l0,-15.767l-6.8,0l0,42.655Zm64.334,-13.684c1.133,-9.258 -4.838,-18.037 -14.575,-18.037c-9.2,0 -14.93,7.525 -14.93,16.308c0,9.504 5.434,16.246 15.109,16.246c6.75,0 12.483,-3.758 13.979,-10.508l-6.454,0c-1.196,3.408 -3.584,5.141 -7.525,5.141c-5.675,0 -8.304,-4.308 -8.304,-9.15l22.7,0Zm-22.7,-4.475c0.179,-4.604 3.404,-8.191 8.125,-8.191c4.6,0 7.525,3.887 7.766,8.191l-15.891,0Zm27.97,18.159l6.8,0l0,-14.7c0,-6.809 3.705,-10.575 8.363,-10.575c0.958,0 1.975,0.179 2.929,0.3l0,-6.567c-0.596,-0.059 -1.017,-0.179 -2.567,-0.179c-4.183,0 -8.245,3.52 -9.02,6.804l-0.121,0l0,-5.967l-6.384,0l0,30.884Zm16.496,0l8.296,0l0,-8.059l-8.296,0l0,8.059Z" style="fill:#231f20;"/>
    <path d="M2164.93,3166.87c0,0 95.1,-95.433 165.2,-71.087c7.063,2.45 28.138,15.633 20.142,53.712c-9.175,43.7 -18.659,36.555 -18.659,36.555c0,0 -5.712,1.141 -0.758,-14.471c4.367,-13.775 9.138,-49.117 -10.283,-60.163c-20.288,-11.533 -59.017,-11.8 -111.942,23.992c-20.562,12.946 -43.7,31.462 -43.7,31.462" style="fill:#18398a;"/>
    <path d="M2241.45,3317.27c0,0 -96.754,93.754 -166.417,68.191c-7.016,-2.575 -27.858,-16.125 -19.2,-54.054c9.938,-43.533 19.292,-36.221 19.292,-36.221c0,0 5.733,-1.041 0.508,14.479c-4.604,13.696 -9.991,48.95 9.229,60.33c20.084,11.887 58.805,12.833 112.346,-22.03c20.784,-12.583 44.242,-30.695 44.242,-30.695" style="fill:#18398a;"/>
    <path d="M2148.71,3284.9l0,-57.379c0,-19.233 -14.017,-29.992 -34.721,-29.992c-13.854,0 -22.167,2.934 -32.112,8.638l8.641,15.65c7.825,-4.238 13.204,-5.704 23.471,-5.704c8.15,0 12.225,4.887 12.225,10.921l0,4.237c-3.583,-1.792 -8.637,-3.425 -16.462,-3.425c-19.396,0 -34.721,9.454 -34.721,28.367c0,20.7 15.975,30.479 31.95,30.479c7.987,0 15.158,-3.258 19.233,-7.5l0,5.708l22.496,0Zm-22.496,-25.104c-2.442,4.075 -8.312,7.825 -15.646,7.825c-9.616,0 -13.041,-5.379 -13.041,-11.408c0,-6.85 4.566,-10.759 13.041,-10.759c7.988,0 11.738,1.138 15.646,3.584l0,10.758Z" style="fill:#a90432;"/>
    <path d="M2237.37,3284.9l0,-48.25c0,-24.125 -9.779,-39.121 -31.621,-39.121c-8.967,0 -16.142,3.421 -20.05,7.496l0,-38.954l-22.496,11.246l0,107.583l22.496,0l0,-46.783c0,-14.833 5.379,-19.396 14.671,-19.396c9.287,0 14.504,4.563 14.504,19.883l0,46.296l22.496,0Z" style="fill:#a90432;"/>
    <path d="M2321.48,3284.9l0,-57.379c0,-19.233 -14.017,-29.992 -34.721,-29.992c-13.854,0 -22.167,2.934 -32.108,8.638l8.637,15.65c7.825,-4.238 13.204,-5.704 23.471,-5.704c8.15,0 12.225,4.887 12.225,10.921l0,4.237c-3.583,-1.792 -8.637,-3.425 -16.462,-3.425c-19.396,0 -34.721,9.454 -34.721,28.367c0,20.7 15.975,30.479 31.95,30.479c7.987,0 15.158,-3.258 19.233,-7.5l0,5.708l22.496,0Zm-22.496,-25.104c-2.442,4.075 -8.312,7.825 -15.646,7.825c-9.616,0 -13.041,-5.379 -13.041,-11.408c0,-6.85 4.566,-10.759 13.041,-10.759c7.988,0 11.738,1.138 15.646,3.584l0,10.758Z" style="fill:#a90432;"/>
    <path d="M2096.34,3303.95l-3.808,-10.458l-1.663,0l-3.762,10.458l1.625,0l0.87,-2.479l4.184,0l0.879,2.479l1.675,0Zm-3.033,-3.883l-3.23,0l0.838,-2.392c0.271,-0.779 0.646,-1.975 0.762,-2.42c0.121,0.445 0.538,1.658 0.792,2.404l0.838,2.408Z" style="fill:#231f20;"/>
    <path d="M2104.77,3300.15c0,-2.988 -1.329,-4.213 -3.017,-4.213c-0.825,0 -1.483,0.388 -2.05,0.908l0,-3.795l-1.525,0.795l0,10.101l1.525,0l0,-0.734c0.434,0.479 1.179,0.896 1.975,0.896c1.625,0 3.092,-1.267 3.092,-3.958m-1.538,0.046c0,1.658 -0.6,2.495 -1.704,2.495c-0.779,0 -1.496,-0.566 -1.837,-1.033l0,-3.3c0.4,-0.508 1.046,-1.004 1.775,-1.004c1.137,0 1.766,0.867 1.766,2.842" style="fill:#231f20;"/>
    <path d="M2110.38,3294.59l0,-1.345c-0.329,-0.088 -0.763,-0.146 -1.167,-0.146c-1.104,0 -1.987,0.537 -1.987,1.971l0,1.029l-1.017,0l0,1.437l1.017,0l0,6.409l1.541,0l0,-6.409l1.45,0l0,-1.437l-1.45,0l0,-0.896c0,-0.567 0.209,-0.763 0.717,-0.763c0.267,0 0.538,0.046 0.896,0.15" style="fill:#231f20;"/>
    <path d="M2118.12,3303.95l0,-5.379c0,-1.779 -1.196,-2.63 -2.946,-2.63c-1.104,0 -1.942,0.238 -2.687,0.701l0.595,1.166c0.613,-0.341 1.242,-0.491 2.05,-0.491c0.955,0 1.48,0.479 1.48,1.329l0,0.583c-0.434,-0.196 -1.017,-0.3 -1.75,-0.3c-1.78,0 -3.125,0.792 -3.125,2.542c0,1.925 1.45,2.641 2.72,2.641c0.855,0 1.613,-0.4 2.155,-0.937l0,0.775l1.508,0Zm-1.508,-2.225c-0.359,0.492 -1.08,1 -1.9,1c-1.017,0 -1.509,-0.525 -1.509,-1.3c0,-0.717 0.629,-1.167 1.613,-1.167c0.837,0 1.375,0.134 1.796,0.346l0,1.121Z" style="fill:#231f20;"/>
    <path d="M2120.41,3293.86l0,10.088l1.542,0l0,-10.892l-1.542,0.804Z" style="fill:#231f20;"/>
    <path d="M2124.37,3293.86l0,10.084l1.537,0l0,-10.888l-1.537,0.804Z" style="fill:#231f20;"/>
    <path d="M2137.59,3296.1l-1.525,0l-0.925,3.808c-0.15,0.6 -0.3,1.334 -0.392,1.721c-0.087,-0.387 -0.254,-1.091 -0.416,-1.704l-1.059,-3.825l-1.241,0l-1.046,3.808c-0.167,0.617 -0.346,1.334 -0.434,1.721c-0.075,-0.375 -0.241,-1.121 -0.391,-1.721l-0.925,-3.808l-1.525,0l2.154,7.846l1.312,0l1.046,-3.946c0.167,-0.596 0.329,-1.312 0.404,-1.687c0.075,0.375 0.242,1.075 0.405,1.675l1.062,3.958l1.313,0l2.183,-7.846Z" style="fill:#231f20;"/>
    <path d="M2141.17,3294.09c0,-0.554 -0.45,-1 -0.988,-1c-0.55,0 -1,0.446 -1,1c0,0.538 0.45,0.988 1,0.988c0.538,0 0.988,-0.45 0.988,-0.988m-1.763,2l1.538,0l0,7.846l-1.538,0l0,-7.846Z" style="fill:#231f20;"/>
    <path d="M2147.95,3296.27c-0.317,-0.208 -0.704,-0.329 -1.329,-0.329c-0.779,0 -1.438,0.387 -1.796,0.912l0,-0.75l-1.538,0l0,7.846l1.538,0l0,-4.483c0,-1.329 0.571,-2.017 1.542,-2.017c0.508,0 0.85,0.104 1.179,0.283l0.404,-1.462Z" style="fill:#231f20;"/>
    <path d="M2153.47,3302.39c-0.283,0.163 -0.733,0.313 -1.138,0.313c-0.566,0 -0.804,-0.209 -0.804,-0.942l0,-4.258l1.942,0l0,-1.405l-1.942,0l0,-3.05l-1.508,0.809l0,2.241l-1.125,0l0,1.405l1.125,0l0,4.529c0,1.404 0.671,2.075 1.762,2.075c0.613,0 1.134,-0.146 1.509,-0.359l0.179,-1.358Z" style="fill:#231f20;"/>
    <path d="M2161.05,3301.79c0,-1.479 -0.896,-1.959 -2.646,-2.629c-1.179,-0.463 -1.45,-0.746 -1.45,-1.138c0,-0.417 0.329,-0.717 1.079,-0.717c0.746,0 1.388,0.225 2.029,0.671l0.675,-1.179c-0.704,-0.508 -1.675,-0.867 -2.662,-0.867c-1.567,0 -2.671,0.734 -2.671,2.138c0,1.242 0.608,1.808 2.3,2.467c1.133,0.433 1.821,0.716 1.821,1.312c0,0.554 -0.463,0.867 -1.433,0.867c-0.734,0 -1.555,-0.267 -2.288,-0.775l-0.7,1.166c0.792,0.58 1.942,1 3.004,1c1.538,0 2.942,-0.583 2.942,-2.316" style="fill:#231f20;"/>
    <path d="M2168.86,3297.26c-0.733,-0.866 -1.629,-1.329 -2.779,-1.329c-1.913,0 -3.438,1.508 -3.438,4.108c0,2.45 1.479,4.067 3.392,4.067c1.421,0 2.196,-0.687 2.808,-1.467l-0.983,-0.97c-0.617,0.641 -1.046,0.97 -1.779,0.97c-1.225,0 -1.884,-1.104 -1.884,-2.645c0,-1.596 0.717,-2.596 1.838,-2.596c0.704,0 1.271,0.296 1.912,0.954l0.913,-1.092Z" style="fill:#231f20;"/>
    <path d="M2177.13,3303.95l0,-4.496c0,-2.317 -0.971,-3.512 -2.796,-3.512c-0.808,0 -1.583,0.341 -1.971,0.908l0,-3.796l-1.541,0.808l0,10.088l1.541,0l0,-4.588c0,-1.27 0.584,-2.004 1.613,-2.004c1.016,0 1.616,0.571 1.616,2.154l0,4.438l1.538,0Z" style="fill:#231f20;"/>
    <path d="M2185.35,3303.95l0,-5.379c0,-1.779 -1.196,-2.63 -2.942,-2.63c-1.108,0 -1.946,0.238 -2.691,0.701l0.595,1.166c0.613,-0.341 1.242,-0.491 2.05,-0.491c0.955,0 1.48,0.479 1.48,1.329l0,0.583c-0.434,-0.196 -1.017,-0.3 -1.75,-0.3c-1.78,0 -3.121,0.792 -3.121,2.542c0,1.925 1.45,2.641 2.716,2.641c0.855,0 1.617,-0.4 2.155,-0.937l0,0.775l1.508,0Zm-1.508,-2.225c-0.359,0.492 -1.075,1 -1.9,1c-1.017,0 -1.509,-0.525 -1.509,-1.3c0,-0.717 0.629,-1.167 1.613,-1.167c0.837,0 1.375,0.134 1.796,0.346l0,1.121Z" style="fill:#231f20;"/>
    <path d="M2191.24,3294.59l0,-1.345c-0.329,-0.088 -0.763,-0.146 -1.167,-0.146c-1.104,0 -1.987,0.537 -1.987,1.971l0,1.029l-1.017,0l0,1.437l1.017,0l0,6.409l1.541,0l0,-6.409l1.45,0l0,-1.437l-1.45,0l0,-0.896c0,-0.567 0.209,-0.763 0.717,-0.763c0.267,0 0.538,0.046 0.896,0.15" style="fill:#231f20;"/>
    <path d="M2196.9,3302.39c-0.283,0.163 -0.733,0.313 -1.138,0.313c-0.566,0 -0.804,-0.209 -0.804,-0.942l0,-4.258l1.942,0l0,-1.405l-1.942,0l0,-3.05l-1.508,0.809l0,2.241l-1.121,0l0,1.405l1.121,0l0,4.529c0,1.404 0.671,2.075 1.762,2.075c0.613,0 1.134,-0.146 1.509,-0.359l0.179,-1.358Z" style="fill:#231f20;"/>
    <path d="M2211.21,3296.6c0,-2.15 -1.538,-3.121 -3.363,-3.121l-4.587,0l0,10.459l1.537,0l0,-4.138l2.363,0l2.075,4.138l1.812,0l-2.137,-4.275c1.417,-0.359 2.3,-1.388 2.3,-3.063m-1.583,0.046c0,1.138 -0.734,1.675 -1.78,1.675l-3.05,0l0,-3.362l3.05,0c1.063,0 1.78,0.595 1.78,1.687" style="fill:#231f20;"/>
    <path d="M2219.77,3299.87c0,-2.12 -1.075,-3.929 -3.304,-3.929c-2.029,0 -3.434,1.434 -3.434,4.092c0,2.604 1.555,4.079 3.392,4.079c1.196,0 2.017,-0.371 2.704,-1.029l-0.912,-0.987c-0.521,0.391 -1.046,0.629 -1.704,0.629c-0.955,0 -1.809,-0.642 -1.971,-2.15l5.183,0c0.017,-0.167 0.046,-0.421 0.046,-0.705m-1.554,-0.566l-3.646,0c0.133,-1.254 0.762,-1.975 1.792,-1.975c1.27,0 1.779,0.896 1.854,1.975" style="fill:#231f20;"/>
    <path d="M2227.93,3303.2l0,-7.1l-1.538,0l0,0.733c-0.42,-0.475 -1.166,-0.895 -1.958,-0.895c-1.617,0 -3.096,1.27 -3.096,3.962c0,2.988 1.346,4.213 3.021,4.213c0.821,0 1.463,-0.388 2.033,-0.913l0,0.134c0,1.629 -0.479,2.229 -2.691,2.333l0.521,1.167c2.841,-0.092 3.708,-1.242 3.708,-3.634m-1.508,-1.508c-0.405,0.508 -1.046,1 -1.78,1c-1.137,0 -1.762,-0.867 -1.762,-2.838c0,-1.658 0.596,-2.496 1.704,-2.496c0.775,0 1.492,0.567 1.838,1.03l0,3.304Z" style="fill:#231f20;"/>
    <path d="M2232.05,3294.09c0,-0.554 -0.446,-1 -0.988,-1c-0.55,0 -1,0.446 -1,1c0,0.538 0.45,0.988 1,0.988c0.542,0 0.988,-0.45 0.988,-0.988m-1.763,2l1.538,0l0,7.846l-1.538,0l0,-7.846Z" style="fill:#231f20;"/>
    <path d="M2240.79,3299.99c0,-2.45 -1.496,-4.05 -3.496,-4.05c-1.975,0 -3.496,1.525 -3.496,4.096c0,2.45 1.479,4.079 3.45,4.079c2.017,0 3.542,-1.525 3.542,-4.125m-1.554,0.046c0,1.433 -0.763,2.612 -1.929,2.612c-1.163,0 -1.955,-0.941 -1.955,-2.658c0,-1.554 0.717,-2.583 1.88,-2.583c1.241,0 2.004,1.029 2.004,2.629" style="fill:#231f20;"/>
    <path d="M2248.99,3303.95l0,-4.495c0,-2.317 -0.971,-3.513 -2.796,-3.513c-0.808,0 -1.583,0.342 -1.971,0.908l0,-0.745l-1.537,0l0,7.845l1.537,0l0,-4.587c0,-1.271 0.584,-2.004 1.613,-2.004c1.016,0 1.612,0.571 1.612,2.154l0,4.437l1.542,0Z" style="fill:#231f20;"/>
    <path d="M2263.41,3303.95l0,-10.458l-1.567,0l0,4.225l-4.812,0l0,-4.225l-1.571,0l0,10.458l1.571,0l0,-4.691l4.812,0l0,4.691l1.567,0Z" style="fill:#231f20;"/>
    <path d="M2271.92,3303.95l0,-5.379c0,-1.779 -1.196,-2.63 -2.942,-2.63c-1.108,0 -1.946,0.238 -2.691,0.701l0.595,1.166c0.613,-0.341 1.242,-0.491 2.05,-0.491c0.955,0 1.48,0.479 1.48,1.329l0,0.583c-0.434,-0.196 -1.017,-0.3 -1.75,-0.3c-1.78,0 -3.125,0.792 -3.125,2.542c0,1.925 1.454,2.641 2.72,2.641c0.855,0 1.617,-0.4 2.155,-0.937l0,0.775l1.508,0Zm-1.508,-2.225c-0.359,0.492 -1.08,1 -1.9,1c-1.017,0 -1.509,-0.525 -1.509,-1.3c0,-0.717 0.629,-1.167 1.613,-1.167c0.837,0 1.375,0.134 1.796,0.346l0,1.121Z" style="fill:#231f20;"/>
    <path d="M2280.44,3303.95l0,-4.495c0,-2.317 -0.971,-3.513 -2.796,-3.513c-0.804,0 -1.583,0.342 -1.971,0.908l0,-0.745l-1.537,0l0,7.845l1.537,0l0,-4.587c0,-1.271 0.584,-2.004 1.613,-2.004c1.016,0 1.616,0.571 1.616,2.154l0,4.437l1.538,0Z" style="fill:#231f20;"/>
    <path d="M2288.96,3303.95l0,-4.495c0,-2.317 -0.971,-3.513 -2.796,-3.513c-0.804,0 -1.583,0.342 -1.971,0.908l0,-0.745l-1.537,0l0,7.845l1.537,0l0,-4.587c0,-1.271 0.584,-2.004 1.613,-2.004c1.016,0 1.616,0.571 1.616,2.154l0,4.437l1.538,0Z" style="fill:#231f20;"/>
    <path d="M2297.8,3299.99c0,-2.45 -1.496,-4.05 -3.496,-4.05c-1.975,0 -3.496,1.525 -3.496,4.096c0,2.45 1.479,4.079 3.45,4.079c2.017,0 3.542,-1.525 3.542,-4.125m-1.554,0.046c0,1.433 -0.763,2.612 -1.929,2.612c-1.163,0 -1.955,-0.941 -1.955,-2.658c0,-1.554 0.717,-2.583 1.88,-2.583c1.241,0 2.004,1.029 2.004,2.629" style="fill:#231f20;"/>
    <path d="M2306.17,3296.1l-1.629,0l-1.346,4.258c-0.238,0.763 -0.446,1.496 -0.538,1.93c-0.104,-0.434 -0.329,-1.167 -0.583,-1.93l-1.404,-4.258l-1.613,0l2.809,7.846l1.541,0l2.763,-7.846Z" style="fill:#231f20;"/>
    <path d="M2314.17,3299.87c0,-2.12 -1.075,-3.929 -3.304,-3.929c-2.029,0 -3.434,1.434 -3.434,4.092c0,2.604 1.55,4.079 3.392,4.079c1.196,0 2.017,-0.371 2.704,-1.029l-0.912,-0.987c-0.521,0.391 -1.046,0.629 -1.704,0.629c-0.955,0 -1.809,-0.642 -1.971,-2.15l5.183,0c0.017,-0.167 0.046,-0.421 0.046,-0.705m-1.554,-0.566l-3.646,0c0.133,-1.254 0.762,-1.975 1.792,-1.975c1.27,0 1.779,0.896 1.854,1.975" style="fill:#231f20;"/>
    <path d="M2320.74,3296.27c-0.313,-0.208 -0.704,-0.329 -1.329,-0.329c-0.779,0 -1.438,0.387 -1.796,0.912l0,-0.75l-1.538,0l0,7.846l1.538,0l0,-4.483c0,-1.329 0.571,-2.017 1.542,-2.017c0.508,0 0.85,0.104 1.179,0.283l0.404,-1.462Z" style="fill:#231f20;"/>
</svg>